<svg xmlns="http://www.w3.org/2000/svg" xmlns:xlink="http://www.w3.org/1999/xlink" viewBox="0 0 202.29 118.84"><defs><style>.cls-1{fill:none;}.cls-2{clip-path:url(#clip-path);}.cls-3{fill:#eaff19;}</style><clipPath id="clip-path" transform="translate(0 -0.39)"><rect class="cls-1" width="202.29" height="119.68"/></clipPath></defs><title>back</title><g id="Capa_2" data-name="Capa 2"><g id="Capa_1-2" data-name="Capa 1"><path d="M5.85,70.63l42.72,42.72a7.65,7.65,0,0,0,13.07-5.41V83.25H198.69V50.79h-137V22.5a7.66,7.66,0,0,0-13.07-5.42L5.85,59.8a7.66,7.66,0,0,0,0,10.83Z" transform="translate(0 -0.39)"/><path d="M53.91,119.23A11.1,11.1,0,0,1,46,115.9L3.3,73.18a11.25,11.25,0,0,1,0-15.92L46,14.53a11.26,11.26,0,0,1,19.23,8V47.19H198.69a3.6,3.6,0,0,1,3.6,3.6V83.25a3.61,3.61,0,0,1-3.6,3.61H65.25v21.08a11.11,11.11,0,0,1-7,10.41,11.54,11.54,0,0,1-4.39.88ZM8.4,68.08l42.72,42.73A4.06,4.06,0,0,0,58,107.94V83.25a3.6,3.6,0,0,1,3.6-3.6H195.08V54.4H61.64A3.6,3.6,0,0,1,58,50.79V22.5a4.06,4.06,0,0,0-6.92-2.87L8.4,62.36a4,4,0,0,0,0,5.72Z" transform="translate(0 -0.39)"/><g class="cls-2"><path class="cls-3" d="M5.85,59.81l42.72,42.73a7.66,7.66,0,0,0,13.07-5.42V72.43H198.69V40h-137V11.68A7.66,7.66,0,0,0,48.57,6.26L5.85,49a7.66,7.66,0,0,0,0,10.83Z" transform="translate(0 -0.39)"/><path d="M53.91,108.41A11.13,11.13,0,0,1,46,105.09L3.3,62.36a11.25,11.25,0,0,1,0-15.92L46,3.71a11.26,11.26,0,0,1,19.23,8V36.37H198.69a3.6,3.6,0,0,1,3.6,3.61V72.43a3.61,3.61,0,0,1-3.6,3.61H65.25V97.12a11.1,11.1,0,0,1-7,10.41,11.54,11.54,0,0,1-4.39.88ZM8.4,57.26,51.12,100A4.05,4.05,0,0,0,58,97.12V72.43a3.6,3.6,0,0,1,3.6-3.6H195.08V43.58H61.64A3.6,3.6,0,0,1,58,40V11.68a4.06,4.06,0,0,0-6.92-2.87L8.4,51.54a4,4,0,0,0,0,5.72Z" transform="translate(0 -0.39)"/></g></g></g></svg>