<svg id="Capa_1" data-name="Capa 1" xmlns="http://www.w3.org/2000/svg" viewBox="0 0 750 1333.5"><defs><style>.cls-1{fill:#fa7268;}.cls-2{opacity:0.2;isolation:isolate;}.cls-3{fill:#fff;}</style></defs><title>bg-turn</title><g id="Capa_1-2" data-name="Capa 1-2"><rect class="cls-1" width="750" height="1333.5"/><circle class="cls-2" cx="437.5" cy="1156.5" r="62.5"/><path class="cls-2" d="M0,510a62.5,62.5,0,0,1,125,0V666.5a62.5,62.5,0,0,0,125,0V398h0v-1.5a62.5,62.5,0,0,1,125,0V398h0v618.5a62.5,62.5,0,0,0,125,0v-407a62.5,62.5,0,0,1,125,0V767h0a62.48,62.48,0,0,0,124.92,0h0V0H0Z"/><circle class="cls-1" cx="562.5" cy="469.5" r="62.5"/><circle class="cls-1" cx="312.5" cy="253.5" r="62.5"/></g><path class="cls-3" d="M319.49,693.61a10.09,10.09,0,1,1-10.07-10.07,10.07,10.07,0,0,1,10.07,10.07Zm0,0"/><path class="cls-3" d="M496.08,623A5,5,0,1,0,486,623v5a5,5,0,1,0,10.07,0Zm0,0"/><path class="cls-3" d="M496.08,643.16a5,5,0,0,0-10.07,0v5.05a5,5,0,1,0,10.07,0Zm0,0"/><path class="cls-3" d="M496.08,663.36a5,5,0,1,0-10.07,0v5a5,5,0,1,0,10.07,0Zm0,0"/><path class="cls-3" d="M496.08,602.81a5,5,0,1,0-10.07,0v5.05a5,5,0,1,0,10.07,0Zm0,0"/><path class="cls-3" d="M491,698.66a5,5,0,0,0-5,5.05v5.06a5,5,0,1,0,10.07,0v-5.06a5.06,5.06,0,0,0-5.05-5.05Zm0,0"/><path class="cls-3" d="M496.08,683.54a5,5,0,1,0-10.07,0v5.05a5,5,0,0,0,10.07,0Zm0,0"/><path class="cls-3" d="M496.08,582.63a5,5,0,1,0-10.07,0v5a5,5,0,0,0,10.07,0Zm0,0"/><path class="cls-3" d="M415.58,718.84h-5a5.05,5.05,0,1,0,0,10.1h5a5.05,5.05,0,0,0,0-10.1Zm0,0"/><path class="cls-3" d="M395.52,718.84h-4s0,0,0,0a23.37,23.37,0,0,0,1.65-3c.09-.25.22-.5.32-.77s.22-.44.31-.69,0-.37.08-.56a21.78,21.78,0,0,0,1.26-7V571.82a4.91,4.91,0,0,0,0-8.6V448.44A22.25,22.25,0,0,0,373,426.22H245.86a22.26,22.26,0,0,0-22.22,22.22V706.72a22.26,22.26,0,0,0,22.22,22.22H375.47a4.76,4.76,0,0,0,2.14-.52,21.72,21.72,0,0,0,8.05-3.52,5,5,0,0,0,4.86,4h5a5,5,0,0,0,0-10.1Zm-71-277.5h5.05a5.06,5.06,0,0,1,0,10.11h-5.05a5.06,5.06,0,1,1,0-10.11Zm-35.33,0h20.2a5.06,5.06,0,0,1,0,10.11h-20.2a5.06,5.06,0,0,1,0-10.11Zm20.2,272.48a20.19,20.19,0,1,1,20.18-20.21,20.24,20.24,0,0,1-20.18,20.21ZM385.1,562.46v95.85H233.74V466.57H385.1Zm0,0"/><path class="cls-3" d="M435.63,718.84h-5a5,5,0,0,0,0,10.1h5a5,5,0,1,0,0-10.1Zm0,0"/><path class="cls-3" d="M452.92,572.53a5,5,0,1,0,0-10.07h-5a5,5,0,1,0,0,10.07Zm0,0"/><path class="cls-3" d="M455.68,718.84h-5a5,5,0,1,0,0,10.1h5a5,5,0,1,0,0-10.1Zm0,0"/><path class="cls-3" d="M432.87,572.53a5,5,0,0,0,0-10.07h-5a5,5,0,1,0,0,10.07Zm0,0"/><path class="cls-3" d="M473,572.53a5,5,0,0,0,0-10.07h-5a5,5,0,1,0,0,10.07Zm0,0"/><path class="cls-3" d="M412.81,572.53a5,5,0,1,0,0-10.07h-5a5,5,0,1,0,0,10.07Zm0,0"/><path class="cls-3" d="M521.31,656.8a5.07,5.07,0,0,0-5,5.06v5a5,5,0,1,0,10.1,0v-5a5.06,5.06,0,0,0-5.05-5.06Zm0,0"/><path class="cls-3" d="M521.31,636.76a5.06,5.06,0,0,0-5,5v5a5.05,5.05,0,0,0,10.1,0v-5a5,5,0,0,0-5.05-5Zm0,0"/><path class="cls-3" d="M521.31,676.86a5.06,5.06,0,0,0-5,5v5a5,5,0,0,0,10.1,0v-5a5.06,5.06,0,0,0-5.05-5Zm0,0"/><path class="cls-3" d="M521.31,696.92a5,5,0,0,0-5,5.05v5a5,5,0,0,0,5,4.92,5.16,5.16,0,0,0,5.05-5.17V702a5,5,0,0,0-5.05-5.05Zm0,0"/><path class="cls-3" d="M526,580.78a5,5,0,0,0-5.83-4.09,5.05,5.05,0,0,0-4.09,5.84,12.53,12.53,0,0,1,.17,2.14v2a5.05,5.05,0,0,0,10.1,0v-2a23.06,23.06,0,0,0-.35-3.89Zm0,0"/><path class="cls-3" d="M521.31,596.65a5.06,5.06,0,0,0-5,5.05v5a5,5,0,1,0,10.1,0v-5a5.06,5.06,0,0,0-5.05-5.05Zm0,0"/><path class="cls-3" d="M521.31,616.7a5.06,5.06,0,0,0-5,5v5a5,5,0,1,0,10.1,0v-5a5,5,0,0,0-5.05-5Zm0,0"/><path class="cls-3" d="M493,572.53a5,5,0,1,0,0-10.07h-5a5,5,0,1,0,0,10.07Zm0,0"/><path class="cls-3" d="M511.78,716.16a12.59,12.59,0,0,1-3,1.79,5,5,0,0,0,1.92,9.71,5.29,5.29,0,0,0,1.89-.37,22.26,22.26,0,0,0,5.57-3.3,5,5,0,1,0-6.35-7.83Zm0,0"/><path class="cls-3" d="M475.74,718.84h-5a5.05,5.05,0,0,0,0,10.1h5a5.05,5.05,0,0,0,0-10.1Zm0,0"/><path class="cls-3" d="M495.79,718.84h-5a5.05,5.05,0,0,0,0,10.1h5a5.05,5.05,0,1,0,0-10.1Zm0,0"/><path class="cls-3" d="M510.15,574.13a4.9,4.9,0,0,0,2.51.67,5,5,0,0,0,2.52-9.42,22.32,22.32,0,0,0-6-2.36,5,5,0,1,0-2.24,9.83,12,12,0,0,1,3.25,1.28Zm0,0"/><path class="cls-3" d="M486,532.18a5.16,5.16,0,0,0,1.92-.4,4.92,4.92,0,0,0,1.65-1.08l30.25-30.28a5,5,0,0,0-7.12-7.14L491,515V501.9a65.65,65.65,0,0,0-65.58-65.58,5,5,0,1,0,0,10.07A55.58,55.58,0,0,1,481,501.9V515L459.3,493.28a5,5,0,0,0-7.14,7.14l30.27,30.28a4.65,4.65,0,0,0,1.63,1.08,5.23,5.23,0,0,0,1.95.4Zm0,0"/><path class="cls-3" d="M215,921.84H199l3.08-42.74h9.83Zm-8-63a7.55,7.55,0,1,1-7.55,7.55A7.5,7.5,0,0,1,207,858.82Z"/><path class="cls-3" d="M273.11,903.76l-.88-6.32c-2.72,3.95-8.6,7.64-17.46,7.64-17.29,0-31.51-12.73-31.51-32.39s14.83-32.48,32.38-32.48c17.82,0,26.07,10.54,28.79,19.23l-13.34,4.65c-1-3.86-5.09-10.88-15.45-10.88-8.42,0-18.34,5.61-18.34,19.48,0,13,8.6,19.75,18.69,19.75,10.27,0,14.57-6.67,15.36-10.18H252.66V870.5h31.68v33.26Z"/><path class="cls-3" d="M295.14,903.76V860.14h13.34v43.62ZM305.93,855H295.31l8.08-13.25h14.92Z"/><path class="cls-3" d="M347.88,873.3a18.08,18.08,0,0,0-4.21-.43c-5.35,0-10.18,3.16-10.18,11.84v19H320.15V860.14h12.9V866c2.28-4.92,7.81-6.32,11.32-6.32a13.24,13.24,0,0,1,3.51.44Z"/><path class="cls-3" d="M366.58,878.57,376.84,877c2.37-.35,3.16-1.49,3.16-3,0-2.55-2.19-4.74-6.4-4.74-4.65,0-7.2,3.16-7.46,6.4l-11.59-2.37c.53-6.23,6.32-14.48,19.14-14.48,14.13,0,19.3,7.9,19.3,16.85V897a42.47,42.47,0,0,0,.53,6.76h-12a21.16,21.16,0,0,1-.44-4.92c-2.28,3.69-6.5,6.15-12.29,6.15-9.57,0-15.1-6.32-15.1-13.25C353.67,884,359.38,879.62,366.58,878.57ZM380,886.64v-1.93L371.75,886c-2.8.44-4.91,1.76-4.91,4.83,0,2.28,1.49,4.47,5.18,4.47C376,895.33,380,893.4,380,886.64Z"/><path class="cls-3" d="M404.23,903.76V860.14H417v5c2.2-3.86,7.81-6.32,12.55-6.32,6.23,0,10.71,2.55,12.91,6.85,3.42-4.92,7.63-6.85,13.51-6.85,8.25,0,16.15,4.83,16.15,16.68v28.26h-12.9V878.48c0-4.12-2.2-7.37-6.93-7.37s-7.29,3.6-7.29,7.46v25.19H431.79V878.48c0-4.12-2.2-7.37-7-7.37-4.65,0-7.19,3.6-7.19,7.55v25.1Z"/><path class="cls-3" d="M523,891.21c-2.1,7.55-9,13.87-20.1,13.87-12,0-22.73-8.61-22.73-23.26,0-14.05,10.45-23,21.77-23,13.51,0,21.85,8.34,21.85,22.38a27.66,27.66,0,0,1-.26,4.13H493.13c.26,4.91,4.74,8.42,9.92,8.42,4.83,0,7.55-2.28,8.78-5.7Zm-12.11-14.48c-.17-3.34-2.46-7.38-8.78-7.38a8.32,8.32,0,0,0-8.69,7.38Z"/><path class="cls-3" d="M546.58,884.28h-9.83l-3.07-42.75h16Zm-5,5.17a7.6,7.6,0,1,1,0,15.19,7.6,7.6,0,0,1,0-15.19Z"/></svg>