<svg xmlns="http://www.w3.org/2000/svg" viewBox="0 0 1333.5 750"><defs><style>.cls-1{fill:#fa7268;}.cls-2{opacity:0.2;}</style></defs><title>bg</title><g id="Capa_2" data-name="Capa 2"><g id="Capa_1-2" data-name="Capa 1"><rect class="cls-1" width="1333.5" height="750"/><circle class="cls-2" cx="177" cy="437.5" r="62.5"/><polygon class="cls-2" points="823.5 0 823.5 0 823.5 0 823.5 0"/><path class="cls-2" d="M823.5,0a62.5,62.5,0,0,1,0,125H667a62.5,62.5,0,0,0,0,125H935.5v0c.5,0,1,0,1.5,0a62.5,62.5,0,0,1,0,125c-.5,0-1,0-1.5,0v0H317a62.5,62.5,0,0,0,0,125H724a62.5,62.5,0,0,1,0,125H566.5v0a62.48,62.48,0,0,0,0,124.92v0h767V0Z"/><circle class="cls-1" cx="864" cy="562.5" r="62.5"/><circle class="cls-1" cx="1080" cy="312.5" r="62.5"/></g></g></svg>