<?xml version="1.0" encoding="utf-8"?>
<!-- Generator: Adobe Illustrator 23.0.0, SVG Export Plug-In . SVG Version: 6.00 Build 0)  -->
<svg version="1.1" id="Capa_1" xmlns="http://www.w3.org/2000/svg" xmlns:xlink="http://www.w3.org/1999/xlink" x="0px" y="0px"
	 viewBox="0 0 257.2 316.5" style="enable-background:new 0 0 257.2 316.5;" xml:space="preserve">
<style type="text/css">
	.st0{opacity:0.1;fill:#FA7268;enable-background:new    ;}
</style>
<title>box-bg</title>
<g>
	<g id="Capa_1-2">
		<path class="st0" d="M26.4,92.3c0,7.3-5.9,13.2-13.2,13.2S0,99.6,0,92.3C0,85,5.9,79.1,13.2,79.1c0,0,0,0,0,0
			C20.5,79.1,26.4,85,26.4,92.3z M257.2,0v158.3l0,0v158.3H95.4c-7.3,0-13.2-5.9-13.2-13.2c0-7.3,5.9-13.2,13.2-13.2h33.2
			c7.3-0.2,13-6.3,12.8-13.5c-0.2-7-5.8-12.6-12.8-12.8H42.7c-7.3,0-13.2-5.9-13.2-13.2s5.9-13.2,13.2-13.2h130.8
			c7.3,0.2,13.3-5.5,13.5-12.8s-5.5-13.3-12.8-13.5c-0.2,0-0.5,0-0.7,0h-57c-7.3,0-13.2-5.9-13.2-13.2s5.9-13.2,13.2-13.2h33
			c7.3-0.2,13.1-6.2,12.9-13.5c-0.2-7-5.8-12.7-12.8-12.9H95.4c-7.3,0-13.2-5.9-13.2-13.2c0-7.3,5.9-13.2,13.2-13.2h33.2
			c7.3,0,13.2-5.9,13.2-13.2c0-7.3-5.9-13.2-13.2-13.2H42.7c-7.3,0.2-13.3-5.5-13.5-12.8C29,85.4,34.7,79.4,42,79.2
			c0.2,0,0.5,0,0.7,0h130.8c7.3,0,13.2-5.9,13.2-13.2c0-7.3-5.9-13.2-13.2-13.2h-57C109.3,53,103.2,47.2,103,40
			c-0.2-7.3,5.5-13.3,12.8-13.5c0.2,0,0.5,0,0.7,0h33c7.3,0,13.2-5.9,13.2-13.2S156.9,0,149.6,0H257.2z M171.3,276.9
			c0-7.3-5.9-13.2-13.2-13.2s-13.2,5.9-13.2,13.2c0,7.3,5.9,13.2,13.2,13.2c0,0,0,0,0,0C165.4,290.1,171.3,284.2,171.3,276.9
			C171.3,276.9,171.3,276.9,171.3,276.9z M216.9,224.2c0-7.3-5.9-13.2-13.2-13.2s-13.2,5.9-13.2,13.2s5.9,13.2,13.2,13.2
			C211,237.4,216.9,231.5,216.9,224.2C216.9,224.2,216.9,224.2,216.9,224.2z M190.5,65.9c0,7.3,5.9,13.2,13.2,13.2
			s13.2-5.9,13.2-13.2s-5.9-13.2-13.2-13.2C196.4,52.8,190.5,58.7,190.5,65.9z M158.1,131.9c7.3,0,13.2-5.9,13.2-13.1
			s-5.9-13.2-13.1-13.2c-7.3,0-13.2,5.9-13.2,13.1c0,0,0,0,0,0C145,126,150.9,131.9,158.1,131.9z M13.1,237.4
			c-7.3,0-13.2,5.9-13.2,13.2s5.9,13.2,13.2,13.2s13.2-5.9,13.2-13.2C26.3,243.3,20.5,237.4,13.1,237.4L13.1,237.4z"/>
	</g>
</g>
</svg>
