<svg xmlns="http://www.w3.org/2000/svg" viewBox="0 0 83.22 83.21"><defs><style>.cls-1{fill:#fa7268;}</style></defs><title>edit</title><g id="Capa_2" data-name="Capa 2"><g id="Capa_1-2" data-name="Capa 1"><path class="cls-1" d="M80.17,25.11,76.5,28.79,54.43,6.73,58.1,3.05a10.4,10.4,0,0,1,14.72,0l7.35,7.35a10.41,10.41,0,0,1,0,14.71Z"/><path class="cls-1" d="M28.68,69.24a2.6,2.6,0,0,0,3.68,3.68L72.82,32.47l-3.68-3.68Z"/><path class="cls-1" d="M10.29,50.86A2.6,2.6,0,1,0,14,54.53L54.43,14.08,50.75,10.4Z"/><path class="cls-1" d="M58.1,17.76,17.64,58.21A5.2,5.2,0,1,0,25,65.56L65.46,25.11Z"/><path class="cls-1" d="M25,76.59a7.62,7.62,0,0,1-2.06-4.45,10.71,10.71,0,0,1-1.61.15,10.41,10.41,0,0,1-10.4-10.4,10.74,10.74,0,0,1,.15-1.5,7.67,7.67,0,0,1-4.46-2.18c-.11-.12-.16-.27-.26-.4L0,83.21l25.34-6.34c-.11-.1-.24-.18-.35-.28Z"/></g></g></svg>