<svg xmlns="http://www.w3.org/2000/svg" viewBox="0 0 256.35 256.35"><defs><style>.cls-1{fill:none;}.cls-2{fill:#ffca30;}.cls-3{fill:#ef6d6a;}.cls-4{fill:#8dd5f9;}.cls-5{fill:#8ec541;}</style></defs><title>imago</title><g id="Capa_2" data-name="Capa 2"><g id="Capa_1-2" data-name="Capa 1"><rect class="cls-1" width="256.35" height="256.35"/><rect class="cls-2" x="54.33" y="54" width="147.33" height="20.32"/><rect class="cls-3" x="54.33" y="96.56" width="147.33" height="20.32"/><rect class="cls-4" x="54.33" y="139.12" width="73.67" height="20.32"/><rect class="cls-5" x="54.33" y="181.68" width="73.67" height="20.32"/><path d="M155.46,156h9.14v52.2c0,8.46-4.86,14.49-12.93,14.49a15.66,15.66,0,0,1-5.45-.68v-7.68a14.77,14.77,0,0,0,2.92.29c4.76,0,6.32-2.53,6.32-6.8Zm4.47-24.49a6.56,6.56,0,1,1-6.51,6.61A6.55,6.55,0,0,1,159.93,131.53Z"/><path d="M184,187.71c.58,4.86,4.28,8.75,10.89,8.75,5.15,0,8-2.91,8-6.22,0-2.92-2.14-5.15-6-6l-8-1.75c-7.29-1.55-11.67-6.51-11.67-13.12,0-8,7.49-14.77,16.63-14.77,12.83,0,16.81,8.36,17.79,12.54l-8.07,3c-.39-2.43-2.34-7.78-9.72-7.78-4.67,0-7.78,3-7.78,6.22,0,2.82,1.75,4.86,5.35,5.64l7.58,1.65c8.46,1.85,12.93,7,12.93,13.9,0,6.61-5.54,14.49-17.11,14.49-12.83,0-18.28-8.26-19.05-13.61Z"/></g></g></svg>