<svg xmlns="http://www.w3.org/2000/svg" viewBox="0 0 420.76 300.15"><defs><style>.cls-1{fill:#eaff19;}</style></defs><title>logo</title><g id="Capa_2" data-name="Capa 2"><g id="Capa_1-2" data-name="Capa 1"><path class="cls-1" d="M420.76,26.48V203a26.46,26.46,0,0,1-26.48,26.49H114.76L59.23,297.58a8.86,8.86,0,0,1-15.09-6.27V229.52H26.48A26.46,26.46,0,0,1,0,203V26.48A26.46,26.46,0,0,1,26.48,0h367.8a26.46,26.46,0,0,1,26.48,26.48Z"/><path d="M113.45,87.53,127,128.88l11.64-41.35h20.88L138,157.2H116.81l-15.14-45-14.86,45H65.23L43.36,87.53H65.51l11.63,41.21L90.88,87.53Z"/><path d="M191.79,157.2h-21.3V55.71h21.3V92c4.35-4.35,11.64-6.31,17.81-6.31,18.22,0,26.35,12.47,26.35,27.75V157.2H214.64V117.11c0-6.87-3.64-12.06-11.35-12.06-6.73,0-11.08,4.77-11.5,11.22Z"/><path d="M322.85,122.29c0,21.59-16.12,37-37,37-20.74,0-37-15.42-37-37s16.26-36.86,37-36.86C306.73,85.43,322.85,100.71,322.85,122.29Zm-21.31,0c0-11.77-7.57-17.24-15.7-17.24s-15.7,5.47-15.7,17.24,7.71,17.38,15.7,17.38S301.54,134.07,301.54,122.29Z"/><path d="M362,87.53h13.6v18.64H362v26.07c0,5.75,3.08,7.29,7.71,7.29a26.35,26.35,0,0,0,5.61-.7v17.66c-.84.42-4.35,2-11.08,2-14.43,0-23.26-8.55-23.26-22.43V106.17H328.59V87.53h3.51c7.28,0,10.79-4.9,10.79-11.35v-9H362Z"/></g></g></svg>