<svg xmlns="http://www.w3.org/2000/svg" viewBox="0 0 124.16 155.76"><defs><style>.cls-1{fill:#fa7268;}</style></defs><title>mimic</title><g id="Capa_2" data-name="Capa 2"><g id="Capa_1-2" data-name="Capa 1"><path class="cls-1" d="M68.26,27.29V69.6a4.09,4.09,0,1,1-8.18,0V8.18a8.19,8.19,0,0,0-16.38,0V69.6a4.1,4.1,0,1,1-8.2,0V20.47a6.82,6.82,0,0,0-13.64,0V75.06a4.1,4.1,0,0,1-8.19,0V40.94a6.82,6.82,0,0,0-6.82-6.82h0A6.82,6.82,0,0,0,0,40.94V115c2.28,33,20.36,40.77,45.89,40.77,18.19,0,33.87-9.31,41.42-22.79,3.17-5.12,22.36-35,24-38.13,1.92-3.64,4.74-8,8.28-10.93a18.44,18.44,0,0,0,4.32-5.75c.29-.54,1.16-7.22-3.8-7.19a24.39,24.39,0,0,0-12.77,4.24,44.48,44.48,0,0,0-13.6,15.08,8.34,8.34,0,0,1-6.91,4.35c-2.73,0-2-1.28-2.2-6.93V27.29a8.19,8.19,0,0,0-16.38,0Z"/></g></g></svg>