<svg xmlns="http://www.w3.org/2000/svg" viewBox="0 0 86.47 156.71"><defs><style>.cls-1{fill:#fa7268;}</style></defs><title>sing</title><g id="Capa_2" data-name="Capa 2"><g id="Capa_1-2" data-name="Capa 1"><path class="cls-1" d="M83.76,75.65a2.7,2.7,0,0,0-2.7,2.7V94.57a37.83,37.83,0,0,1-75.65,0V78.35a2.71,2.71,0,0,0-5.41,0V94.57a43.24,43.24,0,0,0,40.53,43.09v13.65H27a2.7,2.7,0,1,0,0,5.4H59.45a2.7,2.7,0,0,0,0-5.4H45.94V137.66A43.25,43.25,0,0,0,86.47,94.57V78.35a2.71,2.71,0,0,0-2.71-2.7Z"/><path class="cls-1" d="M43.23,124.29A29.76,29.76,0,0,0,73,94.57V29.72a29.73,29.73,0,0,0-59.45,0V94.57a29.76,29.76,0,0,0,29.72,29.72Z"/></g></g></svg>