<?xml version="1.0" encoding="utf-8"?>
<!-- Generator: Adobe Illustrator 23.0.0, SVG Export Plug-In . SVG Version: 6.00 Build 0)  -->
<svg version="1.1" id="Capa_1" xmlns="http://www.w3.org/2000/svg" xmlns:xlink="http://www.w3.org/1999/xlink" x="0px" y="0px"
	 viewBox="0 0 156 156" style="enable-background:new 0 0 156 156;" xml:space="preserve">
<style type="text/css">
	.st0{fill:#FA7268;}
</style>
<title>tabu</title>
<path class="st0" d="M78,0C34.9,0,0,34.9,0,78s34.9,78,78,78s78-34.9,78-78S121.1,0,78,0z M78,20c12.4,0,23.9,3.9,33.3,10.5
	l-80.8,80.8C23.9,101.9,20,90.4,20,78C20,46,46,20,78,20z M78,136c-12.4,0-23.9-3.9-33.3-10.5l80.8-80.8C132.1,54.1,136,65.6,136,78
	C136,110,110,136,78,136z"/>
</svg>
