<svg xmlns="http://www.w3.org/2000/svg" viewBox="0 0 60.09 81.94"><defs><style>.cls-1{fill:#fa7268;fill-rule:evenodd;}</style></defs><title>trash</title><g id="Capa_2" data-name="Capa 2"><g id="Capa_1-2" data-name="Capa 1"><path class="cls-1" d="M8.34,76.38a7.44,7.44,0,0,0,7.5,5.56H44.25a7.44,7.44,0,0,0,7.5-5.56l5.61-54.53H2.73ZM41,30.05a2.73,2.73,0,1,1,5.46,0L43.7,71a2.73,2.73,0,0,1-5.46,0Zm-13.66,0a2.74,2.74,0,1,1,5.47,0V71a2.74,2.74,0,0,1-5.47,0ZM16.39,27.31a2.74,2.74,0,0,1,2.73,2.74l2.73,41a2.73,2.73,0,0,1-5.46,0l-2.73-41a2.74,2.74,0,0,1,2.73-2.74ZM55.72,10.93h-12V5.46C43.7,1.32,42.36,0,38.24,0H21.85c-3.78,0-5.46,1.83-5.46,5.46v5.47h-12A4.24,4.24,0,0,0,0,15a4.25,4.25,0,0,0,4.37,4.1H55.72A4.24,4.24,0,0,0,60.09,15a4.23,4.23,0,0,0-4.37-4.1Zm-17.48,0H21.85V5.46H38.24Z"/></g></g></svg>